<mxfile host="65bd71144e">
    <diagram id="zCJzCJdqDsHCJ9_B2jmk" name="Page-1">
        <mxGraphModel dx="1685" dy="1762" grid="1" gridSize="10" guides="1" tooltips="1" connect="1" arrows="1" fold="1" page="1" pageScale="1" pageWidth="850" pageHeight="1100" math="0" shadow="0">
            <root>
                <mxCell id="0"/>
                <mxCell id="1" parent="0"/>
                <mxCell id="2" value="&lt;div style=&quot;color: rgb(204, 204, 204); background-color: rgb(31, 31, 31); font-family: Consolas, &amp;quot;Courier New&amp;quot;, monospace; font-size: 14px; line-height: 19px; white-space-collapse: preserve;&quot;&gt;&lt;div&gt;&lt;span style=&quot;color: #6a9955;&quot;&gt;// 19. Una empresa que se dedica a la venta de muebles necesita un sistema que le permita controlar&lt;/span&gt;&lt;/div&gt;&lt;div&gt;&lt;span style=&quot;color: #6a9955;&quot;&gt;// los gastos y las ventas de los distintos artículos que gestionan.&lt;/span&gt;&lt;/div&gt;&lt;br&gt;&lt;div&gt;&lt;span style=&quot;color: #6a9955;&quot;&gt;// Debido a que pretenden informatizarse de a poco, por el momento se conforman con una&lt;/span&gt;&lt;/div&gt;&lt;div&gt;&lt;span style=&quot;color: #6a9955;&quot;&gt;// solución que les permita dar de alta los artículos, asignarle un costo de producción y un precio&lt;/span&gt;&lt;/div&gt;&lt;div&gt;&lt;span style=&quot;color: #6a9955;&quot;&gt;// de venta.&lt;/span&gt;&lt;/div&gt;&lt;br&gt;&lt;div&gt;&lt;span style=&quot;color: #6a9955;&quot;&gt;// Sin embargo, como venden al por mayor y al por menor, es fundamental que puedan manejar al&lt;/span&gt;&lt;/div&gt;&lt;div&gt;&lt;span style=&quot;color: #6a9955;&quot;&gt;// menos dos listas de precio.&lt;/span&gt;&lt;/div&gt;&lt;br&gt;&lt;div&gt;&lt;span style=&quot;color: #6a9955;&quot;&gt;// ● De los artículos simplemente se necesita saber el nombre, el costo, aunque a veces es&lt;/span&gt;&lt;/div&gt;&lt;div&gt;&lt;span style=&quot;color: #6a9955;&quot;&gt;// importante contar con la posibilidad de agregar una observación.&lt;/span&gt;&lt;/div&gt;&lt;br&gt;&lt;div&gt;&lt;span style=&quot;color: #6a9955;&quot;&gt;// ● Una lista de precio siempre es identificada por un nombre, la fecha tope de vigencia, un&lt;/span&gt;&lt;/div&gt;&lt;div&gt;&lt;span style=&quot;color: #6a9955;&quot;&gt;// marcador que identifica si es mayorista o minorista, y el detalle de los artículos con su precio.&lt;/span&gt;&lt;/div&gt;&lt;br&gt;&lt;div&gt;&lt;span style=&quot;color: #6a9955;&quot;&gt;// Se pide analizar el problema, modelar las entidades involucradas, realizar el diagrama, e&lt;/span&gt;&lt;/div&gt;&lt;div&gt;&lt;span style=&quot;color: #6a9955;&quot;&gt;// implementar la solución.&lt;/span&gt;&lt;/div&gt;&lt;br&gt;&lt;div&gt;&lt;span style=&quot;color: #6a9955;&quot;&gt;// Crear un conjunto acotado de artículos y mostrar los detalles por pantalla; adicionalmente crear&lt;/span&gt;&lt;/div&gt;&lt;div&gt;&lt;span style=&quot;color: #6a9955;&quot;&gt;// una lista de cada tipo y también mostrar por pantalla el resultado.&lt;/span&gt;&lt;/div&gt;&lt;/div&gt;" style="text;html=1;align=center;verticalAlign=middle;resizable=0;points=[];autosize=1;strokeColor=none;fillColor=none;" parent="1" vertex="1">
                    <mxGeometry x="-65" y="-172" width="790" height="410" as="geometry"/>
                </mxCell>
                <mxCell id="3" value="class Article" style="swimlane;whiteSpace=wrap;html=1;" parent="1" vertex="1">
                    <mxGeometry x="160" y="280" width="205" height="520" as="geometry"/>
                </mxCell>
                <mxCell id="4" value="-private _name: string" style="text;html=1;align=center;verticalAlign=middle;resizable=0;points=[];autosize=1;strokeColor=none;fillColor=none;" parent="3" vertex="1">
                    <mxGeometry y="25" width="140" height="30" as="geometry"/>
                </mxCell>
                <mxCell id="5" value="-private _productionCost?: number" style="text;html=1;align=center;verticalAlign=middle;resizable=0;points=[];autosize=1;strokeColor=none;fillColor=none;" parent="3" vertex="1">
                    <mxGeometry x="-5" y="55" width="210" height="30" as="geometry"/>
                </mxCell>
                <mxCell id="6" value="-private _obersvation: string:" style="text;html=1;align=center;verticalAlign=middle;resizable=0;points=[];autosize=1;strokeColor=none;fillColor=none;" parent="3" vertex="1">
                    <mxGeometry x="-5" y="145" width="170" height="30" as="geometry"/>
                </mxCell>
                <mxCell id="7" value="+public get name();" style="text;html=1;align=center;verticalAlign=middle;resizable=0;points=[];autosize=1;strokeColor=none;fillColor=none;" parent="3" vertex="1">
                    <mxGeometry x="-5" y="210" width="130" height="30" as="geometry"/>
                </mxCell>
                <mxCell id="10" value="+public get productionCost();" style="text;html=1;align=center;verticalAlign=middle;resizable=0;points=[];autosize=1;strokeColor=none;fillColor=none;" parent="3" vertex="1">
                    <mxGeometry x="-5" y="240" width="180" height="30" as="geometry"/>
                </mxCell>
                <mxCell id="11" value="+public get observation();" style="text;html=1;align=center;verticalAlign=middle;resizable=0;points=[];autosize=1;strokeColor=none;fillColor=none;" parent="3" vertex="1">
                    <mxGeometry x="-10" y="330" width="160" height="30" as="geometry"/>
                </mxCell>
                <mxCell id="46" value="-private _saleCost?: number" style="text;html=1;align=center;verticalAlign=middle;resizable=0;points=[];autosize=1;strokeColor=none;fillColor=none;" parent="3" vertex="1">
                    <mxGeometry x="-5" y="85" width="170" height="30" as="geometry"/>
                </mxCell>
                <mxCell id="47" value="+public get saleCost();" style="text;html=1;align=center;verticalAlign=middle;resizable=0;points=[];autosize=1;strokeColor=none;fillColor=none;" parent="3" vertex="1">
                    <mxGeometry y="270" width="140" height="30" as="geometry"/>
                </mxCell>
                <mxCell id="62" value="-private _wholeCost?: number" style="text;html=1;align=center;verticalAlign=middle;resizable=0;points=[];autosize=1;strokeColor=none;fillColor=none;" vertex="1" parent="3">
                    <mxGeometry x="-5" y="115" width="180" height="30" as="geometry"/>
                </mxCell>
                <mxCell id="63" value="" style="endArrow=none;html=1;" edge="1" parent="3">
                    <mxGeometry width="50" height="50" relative="1" as="geometry">
                        <mxPoint y="190" as="sourcePoint"/>
                        <mxPoint x="200" y="190" as="targetPoint"/>
                    </mxGeometry>
                </mxCell>
                <mxCell id="64" value="+public get wholeCost();" style="text;html=1;align=center;verticalAlign=middle;resizable=0;points=[];autosize=1;strokeColor=none;fillColor=none;" vertex="1" parent="3">
                    <mxGeometry x="-5" y="300" width="150" height="30" as="geometry"/>
                </mxCell>
                <mxCell id="67" value="+public set productionCost();" style="text;html=1;align=center;verticalAlign=middle;resizable=0;points=[];autosize=1;strokeColor=none;fillColor=none;" vertex="1" parent="3">
                    <mxGeometry x="-5" y="400" width="180" height="30" as="geometry"/>
                </mxCell>
                <mxCell id="68" value="+public set saleCost();" style="text;html=1;align=center;verticalAlign=middle;resizable=0;points=[];autosize=1;strokeColor=none;fillColor=none;" vertex="1" parent="3">
                    <mxGeometry x="-5" y="430" width="140" height="30" as="geometry"/>
                </mxCell>
                <mxCell id="69" value="+public set wholeCost();" style="text;html=1;align=center;verticalAlign=middle;resizable=0;points=[];autosize=1;strokeColor=none;fillColor=none;" vertex="1" parent="3">
                    <mxGeometry x="-5" y="460" width="150" height="30" as="geometry"/>
                </mxCell>
                <mxCell id="70" value="+public set obervation();" style="text;html=1;align=center;verticalAlign=middle;resizable=0;points=[];autosize=1;strokeColor=none;fillColor=none;" vertex="1" parent="3">
                    <mxGeometry x="-5" y="490" width="150" height="30" as="geometry"/>
                </mxCell>
                <mxCell id="65" value="+public set name();" style="text;html=1;align=center;verticalAlign=middle;resizable=0;points=[];autosize=1;strokeColor=none;fillColor=none;" vertex="1" parent="3">
                    <mxGeometry x="-5" y="360" width="130" height="30" as="geometry"/>
                </mxCell>
                <mxCell id="13" value="class PriceList" style="swimlane;whiteSpace=wrap;html=1;" parent="1" vertex="1">
                    <mxGeometry x="610" y="280" width="240" height="580" as="geometry"/>
                </mxCell>
                <mxCell id="14" value="-private: _name: string;" style="text;html=1;align=center;verticalAlign=middle;resizable=0;points=[];autosize=1;strokeColor=none;fillColor=none;" parent="13" vertex="1">
                    <mxGeometry y="38" width="150" height="30" as="geometry"/>
                </mxCell>
                <mxCell id="15" value="-private: _validityDeadline: date" style="text;html=1;align=center;verticalAlign=middle;resizable=0;points=[];autosize=1;strokeColor=none;fillColor=none;" parent="13" vertex="1">
                    <mxGeometry y="68" width="190" height="30" as="geometry"/>
                </mxCell>
                <mxCell id="16" value="-private: _identificationMarker: boolean;" style="text;html=1;align=center;verticalAlign=middle;resizable=0;points=[];autosize=1;strokeColor=none;fillColor=none;" parent="13" vertex="1">
                    <mxGeometry y="98" width="230" height="30" as="geometry"/>
                </mxCell>
                <mxCell id="17" value="-private _articleList: array&amp;lt;Article&amp;gt;" style="text;html=1;align=center;verticalAlign=middle;resizable=0;points=[];autosize=1;strokeColor=none;fillColor=none;" parent="13" vertex="1">
                    <mxGeometry y="128" width="210" height="30" as="geometry"/>
                </mxCell>
                <mxCell id="19" value="" style="endArrow=none;html=1;" parent="13" edge="1">
                    <mxGeometry width="50" height="50" relative="1" as="geometry">
                        <mxPoint y="180" as="sourcePoint"/>
                        <mxPoint x="240" y="180" as="targetPoint"/>
                    </mxGeometry>
                </mxCell>
                <mxCell id="20" value="+public get name();" style="text;html=1;align=center;verticalAlign=middle;resizable=0;points=[];autosize=1;strokeColor=none;fillColor=none;" parent="13" vertex="1">
                    <mxGeometry y="190" width="130" height="30" as="geometry"/>
                </mxCell>
                <mxCell id="21" value="+public get validityDeadline();" style="text;html=1;align=center;verticalAlign=middle;resizable=0;points=[];autosize=1;strokeColor=none;fillColor=none;" parent="13" vertex="1">
                    <mxGeometry y="220" width="180" height="30" as="geometry"/>
                </mxCell>
                <mxCell id="22" value="+public get identificationMarker();" style="text;html=1;align=center;verticalAlign=middle;resizable=0;points=[];autosize=1;strokeColor=none;fillColor=none;" parent="13" vertex="1">
                    <mxGeometry x="-5" y="245" width="200" height="30" as="geometry"/>
                </mxCell>
                <mxCell id="75" value="+public set name();" style="text;html=1;align=center;verticalAlign=middle;resizable=0;points=[];autosize=1;strokeColor=none;fillColor=none;" vertex="1" parent="13">
                    <mxGeometry x="5" y="308" width="130" height="30" as="geometry"/>
                </mxCell>
                <mxCell id="76" value="+public set&amp;nbsp;&lt;span style=&quot;color: rgb(0, 0, 0);&quot;&gt;validityDeadline&lt;/span&gt;();" style="text;html=1;align=center;verticalAlign=middle;resizable=0;points=[];autosize=1;strokeColor=none;fillColor=none;" vertex="1" parent="13">
                    <mxGeometry x="10" y="350" width="180" height="30" as="geometry"/>
                </mxCell>
                <mxCell id="77" value="+public set&amp;nbsp;&lt;span style=&quot;color: rgb(0, 0, 0);&quot;&gt;identificationMarker&lt;/span&gt;();" style="text;html=1;align=center;verticalAlign=middle;resizable=0;points=[];autosize=1;strokeColor=none;fillColor=none;" vertex="1" parent="13">
                    <mxGeometry y="400" width="200" height="30" as="geometry"/>
                </mxCell>
                <mxCell id="78" value="+public addArticleToList();" style="text;html=1;align=center;verticalAlign=middle;resizable=0;points=[];autosize=1;strokeColor=none;fillColor=none;" vertex="1" parent="13">
                    <mxGeometry y="450" width="160" height="30" as="geometry"/>
                </mxCell>
                <mxCell id="79" value="+public set getArticleList();" style="text;html=1;align=center;verticalAlign=middle;resizable=0;points=[];autosize=1;strokeColor=none;fillColor=none;" vertex="1" parent="13">
                    <mxGeometry x="10" y="490" width="160" height="30" as="geometry"/>
                </mxCell>
                <mxCell id="71" style="edgeStyle=none;html=1;exitX=1;exitY=0.5;exitDx=0;exitDy=0;" edge="1" parent="1" source="24">
                    <mxGeometry relative="1" as="geometry">
                        <mxPoint x="160" y="470" as="targetPoint"/>
                    </mxGeometry>
                </mxCell>
                <mxCell id="24" value="class registrationSystem" style="swimlane;whiteSpace=wrap;html=1;" parent="1" vertex="1">
                    <mxGeometry x="-330" y="370" width="300" height="190" as="geometry"/>
                </mxCell>
                <mxCell id="34" value="+public registerNewArticle();" style="text;html=1;align=center;verticalAlign=middle;resizable=0;points=[];autosize=1;strokeColor=none;fillColor=none;" parent="24" vertex="1">
                    <mxGeometry y="30" width="170" height="30" as="geometry"/>
                </mxCell>
                <mxCell id="57" value="+public registerNewList();" style="text;html=1;align=center;verticalAlign=middle;resizable=0;points=[];autosize=1;strokeColor=none;fillColor=none;" vertex="1" parent="24">
                    <mxGeometry y="60" width="160" height="30" as="geometry"/>
                </mxCell>
                <mxCell id="58" value="+public addArticleCreatedToList();" style="text;html=1;align=center;verticalAlign=middle;resizable=0;points=[];autosize=1;strokeColor=none;fillColor=none;" vertex="1" parent="24">
                    <mxGeometry y="90" width="200" height="30" as="geometry"/>
                </mxCell>
                <mxCell id="59" value="+public showArticlesInList();" style="text;html=1;align=center;verticalAlign=middle;resizable=0;points=[];autosize=1;strokeColor=none;fillColor=none;" vertex="1" parent="24">
                    <mxGeometry y="128" width="170" height="30" as="geometry"/>
                </mxCell>
                <mxCell id="41" value="&lt;font style=&quot;font-size: 18px;&quot;&gt;it&#39;s saved by&lt;/font&gt;" style="text;html=1;align=center;verticalAlign=middle;resizable=0;points=[];autosize=1;strokeColor=none;fillColor=none;" parent="1" vertex="1">
                    <mxGeometry x="410" y="420" width="120" height="40" as="geometry"/>
                </mxCell>
                <mxCell id="50" value="&lt;font style=&quot;font-size: 18px;&quot;&gt;register an&lt;/font&gt;" style="text;html=1;align=center;verticalAlign=middle;resizable=0;points=[];autosize=1;strokeColor=none;fillColor=none;" parent="1" vertex="1">
                    <mxGeometry x="10" y="380" width="110" height="40" as="geometry"/>
                </mxCell>
                <mxCell id="73" value="" style="edgeStyle=none;orthogonalLoop=1;jettySize=auto;html=1;entryX=0;entryY=0.067;entryDx=0;entryDy=0;entryPerimeter=0;" edge="1" parent="1" target="20">
                    <mxGeometry width="100" relative="1" as="geometry">
                        <mxPoint x="365" y="470" as="sourcePoint"/>
                        <mxPoint x="465" y="470" as="targetPoint"/>
                        <Array as="points"/>
                    </mxGeometry>
                </mxCell>
            </root>
        </mxGraphModel>
    </diagram>
</mxfile>